<?xml version="1.0" standalone="no"?>
<!DOCTYPE svg PUBLIC "-//W3C//DTD SVG 20010904//EN"
 "http://www.w3.org/TR/2001/REC-SVG-20010904/DTD/svg10.dtd">
<svg version="1.0" xmlns="http://www.w3.org/2000/svg"
 width="2134.000000pt" height="2134.000000pt" viewBox="0 0 2134.000000 2134.000000"
 preserveAspectRatio="xMidYMid meet">
<metadata>
Created by potrace 1.11, written by Peter Selinger 2001-2013
</metadata>
<g transform="translate(0.000000,2134.000000) scale(0.100000,-0.100000)"
fill="#000000" stroke="none">
<path d="M0 10675 l0 -10665 10665 0 10665 0 0 10665 0 10665 -10665 0 -10665
0 0 -10665z m13050 7565 c752 -42 1360 -122 2845 -375 308 -52 722 -120 920
-150 198 -31 375 -61 394 -67 121 -38 194 -204 207 -468 12 -237 -50 -1235
-141 -2295 -112 -1294 -113 -1304 -159 -1395 -29 -57 -64 -82 -123 -87 -90 -8
-142 40 -170 156 -8 33 -17 169 -23 331 -12 340 -29 472 -91 729 -199 816
-736 1590 -1429 2060 -423 288 -961 522 -1500 656 -272 67 -506 105 -825 137
-172 16 -747 16 -935 0 -854 -76 -1648 -307 -2415 -701 -1117 -574 -2015
-1437 -2655 -2551 -941 -1637 -1191 -3662 -675 -5459 453 -1576 1465 -2977
2805 -3884 857 -580 1758 -903 2822 -1013 341 -35 962 -29 1353 12 538 56
1197 195 1630 344 252 87 558 259 788 443 656 528 1150 1401 1342 2371 61 309
94 372 207 390 95 15 160 -66 180 -229 14 -111 3 -218 -82 -815 -152 -1062
-302 -1836 -441 -2267 -136 -423 -193 -463 -829 -583 -662 -125 -1887 -312
-2515 -384 -994 -115 -2301 -45 -3355 180 -1909 408 -3431 1295 -4541 2649
-304 370 -626 870 -855 1327 -363 724 -647 1599 -784 2413 -93 561 -109 1189
-44 1785 136 1246 665 2488 1507 3535 246 306 660 739 942 984 568 496 1152
885 1845 1230 1157 575 2413 908 3735 990 189 12 861 12 1065 1z"/>
</g>
</svg>
