<svg xmlns="http://www.w3.org/2000/svg"><symbol viewBox="0 0 1000 1000" id="case-study"><path d="M866.6 374.6c22.6-53.6 23-113 1-166.8-45.3-111.2-172.7-165-284-119.6C472.5 133.5 419 261 464.2 372.2c22 54 63.7 96 117.3 118.6 27.2 11.5 56 17.2 84.6 17.2 27.7 0 55.6-5.4 82-16.2 54-22 96-63.6 118.6-117.2zM485 243.2h186.2v15.6H481.8c1-5.2 2-10.4 3.3-15.6zm7.8 117.2c-1-2.7-2.2-5.5-3-8.3H671v15.7H496l-3.2-7.3zM593.3 462c-32.3-13.5-59.5-35.3-79.3-63h188.3v-78H481.7c-1.8-10.3-2.6-20.7-2.6-31h223.3v-77.8h-206c7.7-17 18-32.7 30.4-46.7h206.7v298.7c-45.4 17.5-95 17-140-2zm171.3-13.4V134.3h-202c10.2-6.7 21-12.5 32.8-17.3 23-9.4 46.8-13.8 70.2-13.8 73.7 0 143.7 44 173.2 116.3 18.8 46.2 18.5 97-1 143-15 36-40.6 66-73.2 86zm229.2 420l-116-284.8c-5.6-14-16.4-25-30.3-30.7-5.6-2.3-11.5-3.4-17.4-4l-16-39.8c42.2-28.4 75.4-68.5 95.6-116.5 27.4-65 28-137 1.2-202.5-26.6-65.5-77.2-116.6-142.3-144-65-27.5-137-28-202.5-1.2-135 55-200.3 209.7-145.3 344.8 26.6 65.5 77.2 116.6 142.3 144 33 14 68 21 102.7 21 15.8 0 31.6-1.6 47.2-4.4l16.2 40c-13.5 15.5-18.2 37.7-10 58l116 284.8c9 22 30 35.2 52.3 35.2 7 0 14.3-1.4 21.2-4.2l54-22c14-5.7 25-16.5 30.7-30.4 6-14 6-29.3.4-43.3zM575.2 505c-57.5-24.2-102-69.4-125.6-127-48.5-119.3 9-255.8 128.2-304.4 28.4-11.6 58.3-17.4 88-17.4 30.8 0 61.5 6 90.7 18.4C814 99 858.5 144.2 882 202s23 121.2-1 178.7c-24.3 57.4-69.4 102-127 125.6h-.2c-57.7 23.4-121.2 23-178.6-1zm212 21L799 555l-43.3 17.6-11.7-28.8 43.2-17.6zM965 899.6c-2.7 6.2-7.6 11-14 13.6l-54 22c-6 2.5-13 2.5-19.3 0-6.2-2.7-11-7.6-13.6-14L748.3 636.8c-2.5-6.3-2.5-13 0-19.4 2.7-6.2 7.6-11 13.8-13.6l54-22c3.2-1.3 6.4-2 9.6-2 10 0 19.5 6 23.5 15.8l116 284.8c2.6 6.2 2.5 13 0 19.3zM831 592.4l-72 29.4 35 86.5 72.2-29.4-35.2-86.6zm-19.8 75.3L799.5 639l14.4-6 11.6 28.8-14.4 6zm61 25.6L800 722.7l35.2 86.5 72-29.3-35-86.7zm-20 75.3l-11.6-28.8 14.4-6 11.7 29-14.4 5.8zm-11 55l35 86.5 72.2-29.3-35.2-86.5-72 29.4zm52.2 46l-11.7-29L896 835l11.8 28.8-14.4 6zm-237.8-284h31v389H2V72h451.3v31H33v840.5h622.6v-358zM79.8 165.4H391v31H79.8v-31zm295.7 109H79.8v-31h295.7v31zM79.8 321h295.7v31.2H79.8v-31zm0 78H391v31H79.8v-31zm0 77.7h358v31h-358v-31zm0 77.8h482.5v31H79.8v-31zm529 109H80v-31H609v31zm0 77.8H80v-31H609v31zm0 77.8H80v-31H609v31zM80 866H609v31H79.8v-31z"/></symbol></svg>