<?xml version="1.0" encoding="utf-8"?>
<!-- Generator: Adobe Illustrator 21.1.0, SVG Export Plug-In . SVG Version: 6.00 Build 0)  -->
<!DOCTYPE svg PUBLIC "-//W3C//DTD SVG 1.1//EN" "http://www.w3.org/Graphics/SVG/1.1/DTD/svg11.dtd">
<svg version="1.1" id="Layer_1" xmlns="http://www.w3.org/2000/svg" xmlns:xlink="http://www.w3.org/1999/xlink" x="0px" y="0px"
	 viewBox="0 0 1000 1000" enable-background="new 0 0 1000 1000" xml:space="preserve">
<path d="M842.8,70h-95.2H252.4h-95.2C71.2,70,1.4,139.8,1.4,225.8v174.4v199.6c0,86,69.7,155.8,155.8,155.8h124.7v112.1
	c0,25.2,15.1,47.9,38.5,57.6c7.7,3.2,15.8,4.8,23.8,4.8c16.2,0,32.2-6.3,44.1-18.2l161-156.2h293.5c86,0,155.8-69.7,155.8-155.8
	V400.2V225.8C998.6,139.8,928.9,70,842.8,70z M235.1,494.6c-51.7,0-93.5-41.9-93.5-93.5c0-51.6,41.8-93.5,93.5-93.5
	c51.6,0,93.5,41.9,93.5,93.5C328.6,452.8,286.8,494.6,235.1,494.6z M500,494.6c-51.6,0-93.5-41.9-93.5-93.5
	c0-51.6,41.9-93.5,93.5-93.5c51.6,0,93.5,41.9,93.5,93.5C593.5,452.8,551.6,494.6,500,494.6z M757.1,494.6
	c-51.6,0-93.5-41.9-93.5-93.5c0-51.6,41.9-93.5,93.5-93.5c51.7,0,93.5,41.9,93.5,93.5C850.6,452.8,808.7,494.6,757.1,494.6z"/>
</svg>
