<?xml version="1.0" encoding="utf-8"?>
<!-- Generator: Adobe Illustrator 21.1.0, SVG Export Plug-In . SVG Version: 6.00 Build 0)  -->
<!DOCTYPE svg PUBLIC "-//W3C//DTD SVG 1.1//EN" "http://www.w3.org/Graphics/SVG/1.1/DTD/svg11.dtd">
<svg version="1.1" id="Layer_1" xmlns="http://www.w3.org/2000/svg" xmlns:xlink="http://www.w3.org/1999/xlink" x="0px" y="0px"
	 viewBox="0 0 1000 1000" enable-background="new 0 0 1000 1000" xml:space="preserve" style="fill: #cf671a">
<g>
	<path d="M914.9,913l-108-182.3c-10.2-17.3-28.8-27.8-48.8-27.8h-28.2c-16,20-32.1,39-47.9,56.8h76.2l108,182.3H133.9l108-182.3
		h76.2c-15.8-17.8-32-36.8-47.9-56.8h-28.2c-20.1,0-38.6,10.6-48.8,27.8L85.1,913c-10.4,17.5-10.6,39.3-0.5,57
		c10.1,17.7,28.9,28.7,49.3,28.7h732.1c20.4,0,39.2-10.9,49.3-28.7C925.5,952.3,925.3,930.5,914.9,913z"/>
	<path d="M500,866.9c0,0,344.7-285.9,344.7-537.4c0-180.6-143.8-328-324.4-329.4c-6.8,0-33.8,0-40.6,0
		C299.1,1.5,155.3,148.9,155.3,329.5C155.3,581,500,866.9,500,866.9z M259.3,339.2c0-99.7,60.7-185.6,147.2-222.5
		c29.1-12.4,61-19.3,94.6-19.3c133.3,0,241.8,108.5,241.8,241.7c0,33.6-6.9,65.5-19.3,94.6C686.6,520.2,600.7,580.9,501,580.9
		C367.7,580.9,259.3,472.4,259.3,339.2z"/>
</g>
</svg>
