<?xml version="1.0" encoding="utf-8"?>
<!-- Generator: Adobe Illustrator 21.1.0, SVG Export Plug-In . SVG Version: 6.00 Build 0)  -->
<!DOCTYPE svg PUBLIC "-//W3C//DTD SVG 1.1//EN" "http://www.w3.org/Graphics/SVG/1.1/DTD/svg11.dtd">
<svg version="1.1" id="Layer_1" xmlns="http://www.w3.org/2000/svg" xmlns:xlink="http://www.w3.org/1999/xlink" x="0px" y="0px"
	 viewBox="0 0 1000 1000" enable-background="new 0 0 1000 1000" xml:space="preserve">
<g>
	<path d="M724.4,0H276.7C124.7,0,1,123.7,1,275.7v447.7c0,152,123.7,275.7,275.7,275.7h447.7c152,0,275.7-123.7,275.7-275.7V275.7
		C1000.1,123.7,876.4,0,724.4,0z M724.4,910.4H276.7c-103.1,0-187.1-83.9-187.1-187.1V275.7c0-103.1,83.9-187.1,187.1-187.1h447.7
		c103.1,0,187.1,83.9,187.1,187.1v447.7h0C911.4,826.5,827.5,910.4,724.4,910.4z"/>
	<path d="M500.5,242.1c-142,0-257.4,115.5-257.4,257.4c0,141.9,115.5,257.4,257.4,257.4S758,641.5,758,499.5
		C758,357.6,642.5,242.1,500.5,242.1z M500.5,668.3c-93.1,0-168.8-75.7-168.8-168.8c0-93.1,75.7-168.8,168.8-168.8
		s168.8,75.7,168.8,168.8C669.3,592.6,593.6,668.3,500.5,668.3z"/>
	<path d="M768.8,166.9c-17.1,0-33.9,6.9-45.9,19c-12.1,12.1-19.1,28.8-19.1,46c0,17.1,7,33.9,19.1,46c12.1,12.1,28.8,19,45.9,19
		c17.1,0,33.9-7,46-19c12.1-12.1,19-28.9,19-46c0-17.1-6.9-33.9-19-46C802.7,173.9,785.9,166.9,768.8,166.9z"/>
</g>
</svg>
