<?xml version="1.0" encoding="utf-8"?>
<!-- Generator: Adobe Illustrator 21.1.0, SVG Export Plug-In . SVG Version: 6.00 Build 0)  -->
<!DOCTYPE svg PUBLIC "-//W3C//DTD SVG 1.1//EN" "http://www.w3.org/Graphics/SVG/1.1/DTD/svg11.dtd">
<svg version="1.1" id="Layer_1" xmlns="http://www.w3.org/2000/svg" xmlns:xlink="http://www.w3.org/1999/xlink" x="0px" y="0px"
	 viewBox="0 0 1000 1000" enable-background="new 0 0 1000 1000" xml:space="preserve">
<g>
	<rect x="12.8" y="333" width="214.3" height="644.7"/>
	<path d="M121.4,22.3C48,22.3,0.1,70.4,0.1,133.6c0,61.9,46.6,111.4,118.5,111.4h1.4c74.8,0,121.3-49.6,121.3-111.4
		C239.8,70.4,194.7,22.3,121.4,22.3z"/>
	<path d="M753.2,317.9c-113.8,0-164.7,62.7-193.2,106.5v2.1h-1.4c0.4-0.7,1-1.4,1.4-2.1V333H345.6c2.9,60.5,0,644.7,0,644.7H560
		v-360c0-19.3,1.5-38.5,7.1-52.3c15.5-38.5,50.7-78.4,110-78.4c77.6,0,108.6,59.1,108.6,145.8v344.9h214.3V608.1
		C999.9,410,894.2,317.9,753.2,317.9z"/>
</g>
</svg>
