<?xml version="1.0" encoding="utf-8"?>
<!-- Generator: Adobe Illustrator 21.1.0, SVG Export Plug-In . SVG Version: 6.00 Build 0)  -->
<svg version="1.1" id="Layer_1" xmlns="http://www.w3.org/2000/svg" xmlns:xlink="http://www.w3.org/1999/xlink" x="0px" y="0px"
	 viewBox="0 0 1000 1000" enable-background="new 0 0 1000 1000" xml:space="preserve">
<g>
	<path fill="#cf671a" d="M682.9,669.2l-86.7,53l0,0c-33.7,14.5-62.6-19.3-115.6-91.5c-33.7-48.2-77.1-115.6-106-183.1
		c-19.3-48.2-38.5-96.3-4.8-120.4c19.3-9.6,81.9-48.2,81.9-48.2c19.3-9.6,28.9-33.7,19.3-48.2L350.5,23.6
		c-9.6-14.5-33.7-19.3-53-9.6l-86.7,53l0,0c-43.4,33.7-139.7,197.5,62.6,558.8c212,380.6,414.3,380.6,467.3,356.5l0,0l86.7-53
		c19.3-9.6,28.9-33.7,19.3-48.2L731.1,678.8C726.2,659.5,702.2,654.7,682.9,669.2z"/>
</g>
</svg>
