<svg xmlns="http://www.w3.org/2000/svg" xmlns:xlink="http://www.w3.org/1999/xlink" viewBox="0 0 20.238 20.318"><defs><path id="a" d="M0 0h20.238v20.318H0z"/></defs><clipPath id="b"><use xlink:href="#a" overflow="visible"/></clipPath><path fill="#f3f3f3" d="M0 20.318V10.279C0 7.549.723 5.3 2.169 3.534 3.614 1.767 5.595.59 8.111 0v4.417c-1.553.482-2.543 1.192-2.971 2.128-.429.938-.643 2.182-.643 3.734v1.044h3.614v8.995H0zm12.127 0V10.279c0-2.73.723-4.979 2.168-6.745C15.74 1.767 17.721.59 20.238 0v4.417c-1.554.482-2.544 1.192-2.972 2.128-.43.938-.643 2.182-.643 3.734v1.044h3.614v8.995h-8.11z" clip-path="url(#b)"/></svg>