<?xml version="1.0" encoding="utf-8"?>
<!-- Generator: Adobe Illustrator 21.1.0, SVG Export Plug-In . SVG Version: 6.00 Build 0)  -->
<!DOCTYPE svg PUBLIC "-//W3C//DTD SVG 1.1//EN" "http://www.w3.org/Graphics/SVG/1.1/DTD/svg11.dtd">
<svg version="1.1" id="Layer_1" xmlns="http://www.w3.org/2000/svg" xmlns:xlink="http://www.w3.org/1999/xlink" x="0px" y="0px"
	 viewBox="0 0 1000 1000" enable-background="new 0 0 1000 1000" xml:space="preserve">
<path id="XMLID_822_" d="M959.9,209.3c-36-42.8-102.5-60.3-229.4-60.3H269.6c-129.9,0-197.5,18.6-233.3,64.2
	c-35,44.4-35,109.9-35,200.5v172.7C1.3,761.9,42.7,851,269.6,851h460.9c110.1,0,171.1-15.4,210.6-53.2
	c40.5-38.7,57.7-102,57.7-211.5V413.7C998.7,318.1,996,252.3,959.9,209.3z M641.6,523.8L432.4,633.2c-4.7,2.4-9.8,3.7-14.9,3.7
	c-5.8,0-11.6-1.6-16.7-4.7c-9.6-5.8-15.5-16.3-15.5-27.5v-218c0-11.2,5.9-21.7,15.5-27.5s21.6-6.2,31.5-1.1l209.3,108.7
	c10.6,5.5,17.3,16.5,17.3,28.5C658.9,507.3,652.3,518.3,641.6,523.8z"/>
</svg>
